<svg width="18" height="15" viewBox="0 0 18 15" fill="none" xmlns="http://www.w3.org/2000/svg">
<path d="M15.6835 4.03744C15.6945 4.18844 15.6945 4.33944 15.6945 4.49144C15.6945 9.09644 12.1885 14.4034 5.7815 14.4034C3.8075 14.4034 1.9735 13.8314 0.4305 12.8394C0.7115 12.8714 0.9815 12.8814 1.2725 12.8814C2.9015 12.8814 4.3995 12.3314 5.5975 11.3934C4.0655 11.3614 2.7825 10.3574 2.3405 8.97644C2.5555 9.00844 2.7715 9.03044 2.9965 9.03044C3.3105 9.03044 3.6235 8.98744 3.9145 8.91244C2.3185 8.58844 1.1205 7.18644 1.1205 5.49344C1.1205 5.48244 1.1205 5.46044 1.1205 5.45044C1.5845 5.70844 2.1235 5.87044 2.6955 5.89244C1.7575 5.26644 1.1425 4.19844 1.1425 2.99144C1.1425 2.34444 1.3155 1.75044 1.6175 1.23244C3.3325 3.34744 5.9105 4.72844 8.8015 4.87844C8.7465 4.61944 8.7145 4.34944 8.7145 4.07944C8.7145 2.16044 10.2685 0.596436 12.1985 0.596436C13.2015 0.596436 14.1075 1.01644 14.7445 1.69644C15.5315 1.54544 16.2855 1.25444 16.9555 0.855436C16.6965 1.66444 16.1465 2.34444 15.4235 2.77444C16.1255 2.69944 16.8045 2.50544 17.4305 2.23544C16.9555 2.92544 16.3625 3.54144 15.6835 4.03744Z" fill="#D0DAF5"/>
</svg>
