<svg width="15" height="17" viewBox="0 0 15 17" fill="none" xmlns="http://www.w3.org/2000/svg">
<path fill-rule="evenodd" clip-rule="evenodd" d="M2.6975 0C2.8985 0.588 3.1065 1.186 3.3145 1.774C3.6185 2.656 3.8085 3.32 3.8945 3.785V6.356H4.8425V3.785L5.9905 0H5.0225L4.3775 2.495L3.7045 0H2.6975ZM7.2615 6.422C7.6985 6.422 8.0305 6.261 8.2675 5.938C8.4485 5.701 8.5325 5.321 8.5325 4.818V3.158C8.5325 2.655 8.4485 2.285 8.2675 2.048C8.0295 1.727 7.6975 1.565 7.2615 1.565C6.8335 1.565 6.5015 1.726 6.2665 2.048C6.0855 2.286 6.0005 2.656 6.0005 3.159V4.819C6.0005 5.322 6.0855 5.692 6.2665 5.939C6.5015 6.261 6.8335 6.422 7.2615 6.422ZM6.8535 2.988C6.8535 2.552 6.9865 2.334 7.2615 2.334C7.5465 2.334 7.6695 2.552 7.6695 2.988V4.98C7.6695 5.417 7.5465 5.644 7.2615 5.644C6.9865 5.644 6.8535 5.416 6.8535 4.98V2.988ZM9.2355 5.36C9.2355 5.701 9.2625 5.928 9.3105 6.071C9.3955 6.309 9.5945 6.422 9.8695 6.422C10.1845 6.422 10.5065 6.232 10.8475 5.834V6.356H11.7105V1.622H10.8475V5.236C10.6575 5.511 10.4775 5.644 10.3075 5.644C10.1935 5.644 10.1275 5.569 10.1085 5.436C10.0985 5.416 10.0985 5.303 10.0985 5.103V1.622H9.2355V5.36ZM12.5935 11.811V12.247H11.7395V11.811C11.7395 11.384 11.8825 11.165 12.1665 11.165C12.4505 11.166 12.5935 11.384 12.5935 11.811ZM14.2435 8.785C14.0725 8.035 13.4555 7.485 12.7255 7.4C10.9795 7.21 9.2145 7.21 7.4595 7.21C5.7045 7.21 3.9395 7.21 2.2035 7.4C1.4655 7.485 0.857496 8.035 0.677496 8.785C0.440496 9.847 0.430496 11.005 0.430496 12.105C0.430496 13.196 0.430496 14.362 0.677496 15.425C0.848496 16.175 1.4655 16.725 2.1955 16.801C3.9405 17 5.7055 17 7.4605 17C9.2155 17 10.9805 17 12.7265 16.801C13.4555 16.725 14.0635 16.175 14.2445 15.425C14.4815 14.363 14.4915 13.196 14.4915 12.105L14.4915 12.091V12.091C14.4905 10.9952 14.4894 9.84249 14.2435 8.785ZM3.4295 9.743H4.4435V8.851H1.4835V9.743H2.4805V15.141H3.4295V9.743ZM7.0055 15.141H6.1605V14.629C5.8185 15.018 5.4965 15.208 5.1925 15.208C4.9185 15.208 4.7185 15.094 4.6425 14.857C4.5945 14.715 4.5665 14.496 4.5665 14.165V10.456H5.4115V13.909C5.4115 14.109 5.4115 14.213 5.4205 14.242C5.4405 14.374 5.5065 14.441 5.6195 14.441C5.7915 14.441 5.9715 14.309 6.1605 14.043V10.457H7.0055V15.141ZM10.1455 14.685C10.2115 14.486 10.2315 14.174 10.2315 13.737V11.868C10.2315 11.431 10.2115 11.119 10.1455 10.929C10.0415 10.578 9.8035 10.398 9.4715 10.398C9.1585 10.398 8.8635 10.568 8.5885 10.91V8.851H7.7455V15.141H8.5885V14.685C8.8735 15.036 9.1685 15.207 9.4715 15.207C9.8035 15.207 10.0415 15.027 10.1455 14.685ZM13.4375 12.959H11.7395V13.784C11.7395 14.221 11.8825 14.438 12.1765 14.438C12.3855 14.438 12.5085 14.325 12.5565 14.097C12.5655 14.05 12.5755 13.86 12.5755 13.518H13.4385V13.642C13.4385 13.917 13.4385 14.107 13.4195 14.192C13.3995 14.381 13.3235 14.552 13.2205 14.704C12.9915 15.036 12.6415 15.207 12.1965 15.207C11.7505 15.207 11.4175 15.046 11.1715 14.723C10.9915 14.495 10.8965 14.125 10.8965 13.622V11.981C10.8965 11.478 10.9825 11.118 11.1625 10.88C11.4095 10.557 11.7415 10.396 12.1785 10.396C12.6065 10.396 12.9375 10.557 13.1835 10.88C13.3555 11.117 13.4405 11.477 13.4405 11.981V12.959H13.4375ZM9.3865 13.803V11.801C9.3865 11.384 9.2625 11.166 9.0165 11.166C8.8735 11.166 8.7315 11.232 8.5885 11.375V14.23C8.7315 14.372 8.8735 14.438 9.0165 14.438C9.2625 14.438 9.3865 14.23 9.3865 13.803Z" fill="#D0DAF5"/>
</svg>
